<svg width="56" height="41" viewBox="0 0 56 41" fill="none" xmlns="http://www.w3.org/2000/svg">
<path d="M12.7667 19.432C11.7587 19.432 10.8707 19.256 10.1027 18.904C9.33472 18.552 8.74272 18.064 8.32672 17.44C7.91072 16.8 7.70272 16.064 7.70272 15.232C7.70272 14.528 7.84672 13.888 8.13472 13.312C8.43872 12.736 8.83872 12.28 9.33472 11.944C9.84672 11.608 10.4067 11.44 11.0147 11.44C11.5747 11.44 12.0467 11.584 12.4307 11.872C12.8147 12.144 13.0547 12.528 13.1507 13.024C12.3187 13.024 11.6547 13.248 11.1587 13.696C10.6627 14.128 10.4147 14.72 10.4147 15.472C10.4147 16.16 10.6227 16.712 11.0387 17.128C11.4547 17.544 12.0067 17.752 12.6947 17.752C13.5427 17.752 14.2387 17.472 14.7827 16.912C15.3427 16.336 15.6227 15.616 15.6227 14.752C15.6227 14 15.4147 13.288 14.9987 12.616C14.5827 11.944 13.9587 11.128 13.1267 10.168C12.2627 9.17601 11.6067 8.32801 11.1587 7.62401C10.7267 6.90401 10.5107 6.12001 10.5107 5.27201C10.5107 4.44001 10.7427 3.69601 11.2067 3.04001C11.6707 2.36801 12.3107 1.84001 13.1267 1.45601C13.9427 1.07201 14.8627 0.880005 15.8867 0.880005C17.1827 0.880005 18.2147 1.18401 18.9827 1.79201C19.7667 2.40001 20.1587 3.21601 20.1587 4.24001C20.1587 4.91201 19.9907 5.45601 19.6547 5.87201C19.3187 6.28801 18.8787 6.49601 18.3347 6.49601C17.7267 6.49601 17.2387 6.24801 16.8707 5.75201C17.1747 5.52801 17.4147 5.23201 17.5907 4.86401C17.7667 4.49601 17.8547 4.11201 17.8547 3.71201C17.8547 3.20001 17.7027 2.79201 17.3987 2.48801C17.0947 2.18401 16.6787 2.03201 16.1507 2.03201C15.5107 2.03201 14.9827 2.26401 14.5667 2.72801C14.1667 3.17601 13.9667 3.75201 13.9667 4.45601C13.9667 5.09601 14.1507 5.69601 14.5187 6.25601C14.8867 6.80001 15.4627 7.50401 16.2467 8.36801C16.8867 9.05601 17.3987 9.64801 17.7827 10.144C18.1827 10.64 18.5187 11.216 18.7907 11.872C19.0787 12.512 19.2227 13.208 19.2227 13.96C19.2227 14.984 18.9347 15.912 18.3587 16.744C17.7987 17.576 17.0227 18.232 16.0307 18.712C15.0547 19.192 13.9667 19.432 12.7667 19.432ZM22.9502 19.144C22.1822 19.144 21.5582 18.904 21.0782 18.424C20.6142 17.944 20.3822 17.224 20.3822 16.264C20.3822 15.864 20.4462 15.344 20.5742 14.704L22.2062 7.00001H25.6622L23.9342 15.16C23.8862 15.4 23.8622 15.624 23.8622 15.832C23.8622 16.488 24.1022 16.816 24.5822 16.816C25.0302 16.816 25.4142 16.632 25.7342 16.264C26.0542 15.88 26.3102 15.36 26.5022 14.704L28.1342 7.00001H31.5902L29.8622 15.16C29.7982 15.4 29.7662 15.656 29.7662 15.928C29.7662 16.248 29.8382 16.48 29.9822 16.624C30.1422 16.752 30.3982 16.816 30.7502 16.816C31.1982 16.816 31.5822 16.624 31.9022 16.24C32.2382 15.856 32.5022 15.344 32.6942 14.704H33.7022C33.1102 16.432 32.3742 17.608 31.4942 18.232C30.6302 18.84 29.7582 19.144 28.8782 19.144C28.1902 19.144 27.6382 18.952 27.2222 18.568C26.8222 18.184 26.5822 17.616 26.5022 16.864C25.9582 17.744 25.3822 18.344 24.7742 18.664C24.1822 18.984 23.5742 19.144 22.9502 19.144ZM34.3234 7.00001H37.7794L37.4674 8.48801C38.0114 8.00801 38.4994 7.64001 38.9314 7.38401C39.3794 7.12801 39.8594 7.00001 40.3714 7.00001C40.8834 7.00001 41.2834 7.17601 41.5714 7.52801C41.8754 7.88001 42.0274 8.30401 42.0274 8.80001C42.0274 9.26401 41.8754 9.67201 41.5714 10.024C41.2674 10.376 40.8434 10.552 40.2994 10.552C39.9474 10.552 39.7074 10.472 39.5794 10.312C39.4674 10.136 39.3794 9.88801 39.3154 9.56801C39.2674 9.36001 39.2194 9.20801 39.1714 9.11201C39.1234 9.01601 39.0354 8.96801 38.9074 8.96801C38.5714 8.96801 38.2834 9.04001 38.0434 9.18401C37.8194 9.31201 37.5234 9.54401 37.1554 9.88001L35.2354 19H31.7794L34.3234 7.00001ZM39.5548 25C38.8028 25 38.1468 24.752 37.5868 24.256C37.0108 23.776 36.7228 23.16 36.7228 22.408C36.7228 21.72 36.8988 21.152 37.2508 20.704C37.6028 20.256 38.0588 19.896 38.6188 19.624C39.1788 19.368 39.9228 19.096 40.8508 18.808L43.7548 5.10401C44.0748 3.56801 44.6348 2.50401 45.4348 1.91201C46.2508 1.32001 47.1468 1.02401 48.1228 1.02401C48.8748 1.02401 49.5308 1.27201 50.0908 1.76801C50.6668 2.24801 50.9548 2.86401 50.9548 3.61601C50.9548 3.98401 50.9308 4.31201 50.8828 4.60001H49.7548C49.7868 4.24801 49.8028 4.03201 49.8028 3.95201C49.8028 3.69601 49.7148 3.49601 49.5388 3.35201C49.3628 3.20801 49.1468 3.13601 48.8908 3.13601C48.5548 3.13601 48.2268 3.28801 47.9068 3.59201C47.5868 3.88001 47.3548 4.38401 47.2108 5.10401L46.8028 7.00001H48.5548L48.3868 7.96001H46.6108L43.8508 20.92C43.5308 22.472 42.9788 23.536 42.1948 24.112C41.4108 24.704 40.5308 25 39.5548 25ZM39.0028 22.864C39.6428 22.864 40.0988 22.24 40.3708 20.992L40.6828 19.6C39.8348 19.888 39.1868 20.216 38.7388 20.584C38.2748 20.968 38.0428 21.464 38.0428 22.072C38.0428 22.264 38.1388 22.44 38.3308 22.6C38.5228 22.776 38.7468 22.864 39.0028 22.864ZM3.55138 40.144C2.46338 40.144 1.63138 39.88 1.05538 39.352C0.479375 38.808 0.191375 38.048 0.191375 37.072C0.191375 36.592 0.247375 36.136 0.359375 35.704L2.92738 23.68L6.47938 23.2L5.32738 28.6C5.77538 28.328 6.14338 28.152 6.43138 28.072C6.71938 27.976 7.00738 27.928 7.29538 27.928C9.18338 27.928 10.1274 29.296 10.1274 32.032C10.1274 33.136 9.91138 34.32 9.47938 35.584C9.06338 36.832 8.35938 37.904 7.36738 38.8C6.39138 39.696 5.11938 40.144 3.55138 40.144ZM4.89538 37.816C5.39138 37.816 5.85538 37.512 6.28738 36.904C6.71938 36.28 7.06338 35.512 7.31938 34.6C7.57538 33.672 7.70338 32.784 7.70338 31.936C7.70338 31.296 7.59138 30.752 7.36738 30.304C7.14338 29.856 6.83138 29.632 6.43138 29.632C6.19138 29.632 5.91938 29.672 5.61538 29.752C5.32738 29.816 5.12738 29.92 5.01538 30.064L3.69538 36.16C3.64738 36.352 3.62338 36.536 3.62338 36.712C3.62338 37.448 4.04738 37.816 4.89538 37.816ZM14.5274 40.096C13.3434 40.096 12.4074 39.792 11.7194 39.184C11.0314 38.576 10.6874 37.616 10.6874 36.304C10.6874 35.216 10.9114 34.008 11.3594 32.68C11.8074 31.352 12.5274 30.208 13.5194 29.248C14.5114 28.272 15.7594 27.784 17.2634 27.784C19.3114 27.784 20.3354 29.064 20.3354 31.624V31.648C20.3834 31.664 20.4714 31.672 20.5994 31.672C21.1274 31.672 21.7354 31.536 22.4234 31.264C23.1114 30.976 23.7354 30.632 24.2954 30.232L24.5114 30.88C24.0474 31.376 23.4394 31.8 22.6874 32.152C21.9514 32.488 21.1434 32.728 20.2634 32.872C20.1354 34.328 19.8074 35.6 19.2794 36.688C18.7514 37.776 18.0714 38.616 17.2394 39.208C16.4074 39.8 15.5034 40.096 14.5274 40.096ZM15.4874 37.936C15.8714 37.936 16.2554 37.72 16.6394 37.288C17.0234 36.84 17.3594 36.24 17.6474 35.488C17.9354 34.72 18.1434 33.872 18.2714 32.944C17.8394 32.848 17.6234 32.512 17.6234 31.936C17.6234 31.28 17.8714 30.848 18.3674 30.64C18.3354 30.112 18.2554 29.752 18.1274 29.56C17.9994 29.352 17.7754 29.248 17.4554 29.248C16.9274 29.248 16.4154 29.632 15.9194 30.4C15.4234 31.168 15.0234 32.088 14.7194 33.16C14.4154 34.232 14.2634 35.176 14.2634 35.992C14.2634 36.76 14.3514 37.28 14.5274 37.552C14.7034 37.808 15.0234 37.936 15.4874 37.936ZM24.4503 40.144C23.5383 40.144 22.7783 39.832 22.1703 39.208C21.5623 38.584 21.2583 37.608 21.2583 36.28C21.2583 35.096 21.4903 33.856 21.9543 32.56C22.4343 31.248 23.1383 30.144 24.0663 29.248C25.0103 28.336 26.1303 27.88 27.4263 27.88C28.0823 27.88 28.5703 27.992 28.8903 28.216C29.2103 28.44 29.3703 28.736 29.3703 29.104V29.272L29.6343 28H33.0903L31.3623 36.16C31.2983 36.4 31.2663 36.656 31.2663 36.928C31.2663 37.616 31.5943 37.96 32.2503 37.96C32.6983 37.96 33.0823 37.752 33.4023 37.336C33.7383 36.92 34.0023 36.376 34.1943 35.704H35.2023C34.6103 37.432 33.8743 38.608 32.9943 39.232C32.1303 39.84 31.2583 40.144 30.3783 40.144C29.7063 40.144 29.1623 39.96 28.7463 39.592C28.3463 39.208 28.1063 38.656 28.0263 37.936C27.5623 38.592 27.0423 39.128 26.4663 39.544C25.9063 39.944 25.2343 40.144 24.4503 40.144ZM26.0103 37.816C26.4103 37.816 26.8023 37.632 27.1863 37.264C27.5863 36.88 27.8583 36.36 28.0023 35.704L29.1543 30.28C29.1543 30.072 29.0743 29.872 28.9143 29.68C28.7543 29.472 28.5063 29.368 28.1703 29.368C27.5303 29.368 26.9543 29.744 26.4423 30.496C25.9303 31.232 25.5303 32.128 25.2423 33.184C24.9543 34.224 24.8103 35.144 24.8103 35.944C24.8103 36.744 24.9223 37.256 25.1463 37.48C25.3863 37.704 25.6743 37.816 26.0103 37.816ZM35.8351 28H39.2911L38.9791 29.488C39.5231 29.008 40.0111 28.64 40.4431 28.384C40.8911 28.128 41.3711 28 41.8831 28C42.3951 28 42.7951 28.176 43.0831 28.528C43.3871 28.88 43.5391 29.304 43.5391 29.8C43.5391 30.264 43.3871 30.672 43.0831 31.024C42.7791 31.376 42.3551 31.552 41.8111 31.552C41.4591 31.552 41.2191 31.472 41.0911 31.312C40.9791 31.136 40.8911 30.888 40.8271 30.568C40.7791 30.36 40.7311 30.208 40.6831 30.112C40.6351 30.016 40.5471 29.968 40.4191 29.968C40.0831 29.968 39.7951 30.04 39.5551 30.184C39.3311 30.312 39.0351 30.544 38.6671 30.88L36.7471 40H33.2911L35.8351 28ZM46.1066 40.144C45.1946 40.144 44.4346 39.832 43.8266 39.208C43.2186 38.584 42.9146 37.608 42.9146 36.28C42.9146 35.096 43.1466 33.856 43.6106 32.56C44.0906 31.248 44.7946 30.144 45.7226 29.248C46.6666 28.336 47.7866 27.88 49.0826 27.88C49.7386 27.88 50.2266 27.992 50.5466 28.216C50.8666 28.44 51.0266 28.736 51.0266 29.104V29.2L52.2026 23.68L55.7546 23.2L52.9946 36.16C52.9306 36.4 52.8986 36.632 52.8986 36.856C52.8986 37.496 53.2266 37.816 53.8826 37.816C54.1706 37.816 54.4266 37.768 54.6506 37.672C54.5866 38.472 54.2986 39.088 53.7866 39.52C53.2906 39.936 52.6986 40.144 52.0106 40.144C51.3706 40.144 50.8266 39.984 50.3786 39.664C49.9466 39.328 49.6586 38.824 49.5146 38.152C48.5546 39.48 47.4186 40.144 46.1066 40.144ZM47.6666 37.816C48.0186 37.816 48.3706 37.664 48.7226 37.36C49.0906 37.056 49.3626 36.632 49.5386 36.088L49.6346 35.704L50.8106 30.208C50.6666 29.648 50.3386 29.368 49.8266 29.368C49.1866 29.368 48.6106 29.744 48.0986 30.496C47.5866 31.232 47.1866 32.128 46.8986 33.184C46.6106 34.224 46.4666 35.144 46.4666 35.944C46.4666 36.744 46.5786 37.256 46.8026 37.48C47.0426 37.704 47.3306 37.816 47.6666 37.816Z" fill="#292929"/>
</svg>
